<svg width="960" height="540" viewBox="0 0 960 540" fill="none" xmlns="http://www.w3.org/2000/svg">
  <rect width="960" height="540" rx="28" fill="#0c1327" />
  <rect x="150" y="110" width="660" height="90" rx="18" fill="#111827" />
  <rect x="180" y="140" width="150" height="16" rx="8" fill="#e5e7eb" opacity="0.8" />
  <rect x="350" y="140" width="90" height="16" rx="8" fill="#6366f1" opacity="0.8" />
  <rect x="470" y="140" width="120" height="16" rx="8" fill="#0ea5e9" opacity="0.8" />
  <rect x="150" y="230" width="660" height="220" rx="22" fill="#111827" />
  <rect x="180" y="260" width="250" height="160" rx="18" fill="#0ea5e9" opacity="0.8" />
  <rect x="460" y="260" width="220" height="70" rx="14" fill="#1f2937" />
  <rect x="460" y="350" width="220" height="70" rx="14" fill="#1f2937" />
  <rect x="490" y="285" width="160" height="18" rx="9" fill="#38bdf8" opacity="0.85" />
  <rect x="490" y="325" width="140" height="12" rx="6" fill="#38bdf8" opacity="0.65" />
  <rect x="490" y="375" width="160" height="18" rx="9" fill="#6366f1" opacity="0.85" />
  <rect x="490" y="415" width="120" height="12" rx="6" fill="#6366f1" opacity="0.65" />
</svg>
